# xmcd
#
# Track frame offsets: 
#        150
#        16570
#        50962
#        69957
#        86002
#        106457
#        112765
#        127042
#
# Disc length: 1971 seconds
#
# Revision: 8
# Processed by: cddbd v1.5.2PL0 Copyright (c) Steve Scherf et al.
# Submitted via: ExactAudioCopyFreeDBPlugin 1.0
#
DISCID=6107b108
DTITLE=Modest Mouse - Everywhere And His Nasty Parlour Tricks
DYEAR=2001
DGENRE=Indie Rock
TTITLE0=Willful Suspension Of Disbelief
TTITLE1=Night On The Sun
TTITLE2=3 Inch Horses, Two Faced Monsters
TTITLE3=You're The Good Things
TTITLE4=The Air
TTITLE5=So Much Beauty In Dirt
TTITLE6=Here It Comes
TTITLE7=I Came As A Rat (long walk off a short dock)
EXTD=YEAR: 2001
EXTT0=
EXTT1=
EXTT2=
EXTT3=
EXTT4=
EXTT5=
EXTT6=
EXTT7=
PLAYORDER=
